# Blender v2.92.0 OBJ File: ''
# www.blender.org
mtllib hammer.mtl
o Hammer_Cube.001
v -0.000978 -0.000978 0.000978
v -0.000978 0.000978 0.000978
v -0.000978 -0.000978 -0.000978
v -0.000978 0.000978 -0.000978
v 0.000978 -0.000978 0.000978
v 0.000978 0.000978 0.000978
v 0.000978 -0.000978 -0.000978
v 0.000978 0.000978 -0.000978
v -0.019985 -0.019463 0.036876
v -0.019985 -0.019463 -0.312922
v 0.020074 -0.019463 -0.312922
v 0.020074 -0.019463 0.036876
v -0.070159 -0.019463 0.117251
v -0.070159 -0.019463 0.036980
v 0.070225 -0.019463 0.036980
v 0.070225 -0.019463 0.117251
v -0.019985 0.019680 0.036876
v 0.020074 0.019680 0.036876
v 0.020074 0.019680 -0.312922
v -0.019985 0.019680 -0.312922
v -0.070159 0.019680 0.117251
v 0.070225 0.019680 0.117251
v 0.070225 0.019680 0.036980
v -0.070159 0.019680 0.036980
vt 0.375000 0.000000
vt 0.625000 0.000000
vt 0.625000 0.250000
vt 0.375000 0.250000
vt 0.625000 0.500000
vt 0.375000 0.500000
vt 0.625000 0.750000
vt 0.375000 0.750000
vt 0.625000 1.000000
vt 0.375000 1.000000
vt 0.125000 0.500000
vt 0.125000 0.750000
vt 0.875000 0.500000
vt 0.875000 0.750000
vt 0.009867 0.985019
vt 0.002843 0.005672
vt 0.993569 0.011598
vt 0.998303 0.999551
vt 0.993264 0.994751
vt 0.003286 0.999992
vt 0.004589 0.009849
vt 0.987447 0.006780
vt 0.000081 0.999919
vt 0.000081 0.000081
vt 0.650232 0.000081
vt 0.650232 0.999919
vt 0.000000 0.000000
vt 0.000000 0.000000
vt 0.000000 0.000000
vt 0.000000 0.000000
vt 0.000064 1.002917
vt 0.001170 0.010335
vt 0.999927 0.001243
vt 0.999769 1.003435
vt 0.004799 0.009670
vt 0.005694 0.985792
vt 0.988682 0.993030
vt 0.997756 0.006780
vt 0.999918 0.000082
vt 0.999918 0.671881
vt 0.218082 0.671881
vt 0.218082 0.000082
vt 0.380520 0.000062
vt 0.380520 0.999938
vt 0.000062 0.999938
vt 0.000062 0.000062
vt 0.000065 0.000065
vt 0.999935 0.000065
vt 0.999935 0.419019
vt 0.000065 0.419019
vt 0.185576 0.000043
vt 0.185576 0.999957
vt 0.000043 0.999957
vt 0.000043 0.000043
vt 0.000082 0.671881
vt 0.000082 0.000082
vt 0.000086 0.000086
vt 0.999914 0.732753
vt 0.000086 0.732753
vn -1.0000 0.0000 0.0000
vn 0.0000 0.0000 -1.0000
vn 1.0000 0.0000 0.0000
vn 0.0000 0.0000 1.0000
vn 0.0000 -1.0000 0.0000
vn 0.0000 1.0000 0.0000
usemtl wood
s off
f 1/1/1 2/2/1 4/3/1 3/4/1
f 3/4/2 4/3/2 8/5/2 7/6/2
f 7/6/3 8/5/3 6/7/3 5/8/3
f 5/8/4 6/7/4 2/9/4 1/10/4
f 3/11/5 7/6/5 5/8/5 1/12/5
f 8/5/6 4/13/6 2/14/6 6/7/6
f 9/15/5 10/16/5 11/17/5
f 9/15/5 11/17/5 12/18/5
f 17/19/6 18/20/6 19/21/6
f 17/19/6 19/21/6 20/22/6
f 11/23/2 10/24/2 20/25/2
f 11/23/2 20/25/2 19/26/2
f 9/27/4 12/28/4 18/29/4
f 9/27/4 18/29/4 17/30/4
f 12/31/3 11/32/3 19/33/3
f 12/31/3 19/33/3 18/34/3
f 10/35/1 9/36/1 17/37/1
f 10/35/1 17/37/1 20/38/1
usemtl metal
f 13/39/5 14/40/5 15/41/5
f 13/39/5 15/41/5 16/42/5
f 21/43/6 22/44/6 23/45/6
f 21/43/6 23/45/6 24/46/6
f 15/47/2 14/48/2 24/49/2
f 15/47/2 24/49/2 23/50/2
f 13/51/4 16/52/4 22/53/4
f 13/51/4 22/53/4 21/54/4
f 16/42/3 15/41/3 23/55/3
f 16/42/3 23/55/3 22/56/3
f 14/57/1 13/39/1 21/58/1
f 14/57/1 21/58/1 24/59/1
