# Blender 3.4.1
# www.blender.org
mtllib l_gripper_finger_link_t.mtl
o l_gripper_finger_link
v 0.029000 0.102850 0.011150
v 0.029000 0.103002 0.011915
v -0.029000 0.116882 -0.012150
v 0.029000 0.116564 -0.012564
v -0.029000 0.116150 -0.012882
v 0.029000 0.115150 -0.013150
v 0.030414 0.104850 0.012564
v 0.030848 0.115150 0.011915
v 0.031000 0.115150 0.011150
v 0.029765 0.104850 0.012998
v -0.029000 0.116882 0.012150
v 0.029000 0.116998 0.011915
v 0.029707 0.103002 -0.011443
v 0.029765 0.103002 -0.011150
v 0.030414 0.115150 0.012564
v 0.029000 0.103869 0.012854
v -0.029000 0.103850 0.012882
v -0.029000 0.116150 0.012882
v 0.029000 0.116854 0.012131
v 0.029000 0.104085 -0.012998
v 0.029000 0.103436 -0.012564
v 0.029707 0.103002 0.011443
v 0.029000 0.116854 -0.012131
v 0.029000 0.116998 -0.011915
v 0.029293 0.116998 -0.011857
v 0.029000 0.115915 -0.012998
v 0.029000 0.116131 -0.012854
v 0.030707 0.104085 -0.011857
v 0.031000 0.104850 -0.011150
v 0.030848 0.104850 0.011915
v 0.030704 0.103869 -0.011150
v 0.030307 0.103436 -0.011691
v 0.030000 0.103436 -0.012150
v 0.029541 0.103436 -0.012457
v 0.030307 0.104085 -0.012457
v 0.029707 0.104085 0.012857
v 0.029000 0.104085 0.012998
v 0.029541 0.103002 0.011691
v 0.030307 0.103436 0.011691
v 0.030307 0.104085 0.012457
v 0.030707 0.104085 0.011857
v 0.029541 0.116564 -0.012457
v 0.030848 0.115915 0.011150
v 0.030707 0.115915 0.011857
v 0.029000 0.115915 0.012998
v 0.029981 0.116854 0.011150
v 0.029293 0.116998 0.011857
v 0.029000 0.117150 0.011150
v 0.029541 0.103002 -0.011691
v 0.030704 0.103869 0.011150
v 0.030414 0.103436 0.011150
v 0.029765 0.103002 0.011150
v 0.029000 0.103869 -0.012854
v 0.029707 0.104085 -0.012857
v 0.030848 0.104850 -0.011915
v 0.029293 0.103002 0.011857
v 0.029541 0.103436 0.012457
v 0.030000 0.103436 0.012150
v 0.029000 0.103436 0.012564
v 0.029765 0.116998 -0.011150
v 0.029981 0.116854 -0.011150
v 0.029000 0.117150 -0.011150
v 0.029707 0.116998 -0.011443
v 0.029707 0.115915 0.012857
v 0.029765 0.115150 0.012998
v 0.030307 0.115915 0.012457
v 0.029707 0.116998 0.011443
v 0.030307 0.116564 0.011691
v 0.030704 0.116131 0.011150
v 0.029000 0.116564 0.012564
v 0.030000 0.116564 0.012150
v 0.029541 0.116998 0.011691
v 0.029541 0.116564 0.012457
v 0.029000 0.116131 0.012854
v 0.029000 0.102850 -0.011150
v 0.029293 0.103002 -0.011857
v 0.029000 0.103002 -0.011915
v 0.030307 0.116564 -0.011691
v 0.029765 0.104850 -0.012998
v 0.030414 0.104850 -0.012564
v 0.029541 0.116998 -0.011691
v 0.030848 0.115150 -0.011915
v 0.030000 0.116564 -0.012150
v 0.030307 0.115915 -0.012457
v 0.030707 0.115915 -0.011857
v 0.029707 0.115915 -0.012857
v 0.030414 0.115150 -0.012564
v -0.029000 0.102850 -0.011150
v -0.029000 0.102850 0.011150
v -0.029000 0.117150 0.011150
v -0.029000 0.104850 0.013150
v 0.029000 0.115150 0.013150
v 0.029000 0.104850 0.013150
v -0.029000 0.115150 0.013150
v -0.029000 0.103118 -0.012150
v -0.029000 0.104850 -0.013150
v -0.029000 0.103850 -0.012882
v -0.029000 0.115150 -0.013150
v -0.029000 0.117150 -0.011150
v -0.029000 0.103118 0.012150
v 0.031000 0.104850 0.011150
v 0.031000 0.115150 -0.011150
v 0.029000 0.104850 -0.013150
v 0.030848 0.104085 0.011150
v 0.030848 0.104085 -0.011150
v 0.030704 0.104850 0.012131
v 0.030704 0.115150 0.012131
v 0.029765 0.116998 0.011150
v 0.030414 0.103436 -0.011150
v 0.030414 0.116564 0.011150
v 0.030848 0.115915 -0.011150
v 0.030414 0.116564 -0.011150
v 0.030704 0.116131 -0.011150
v 0.030704 0.115150 -0.012131
v 0.030704 0.104850 -0.012131
v 0.029765 0.115150 -0.012998
vn -0.0000 -0.9808 0.1949
vn -0.0000 -1.0000 -0.0000
vn -0.0009 0.2588 0.9659
vn 0.1098 0.8264 0.5522
vn -0.0010 0.9659 0.2588
vn 0.0006 0.5556 -0.8315
vn -1.0000 -0.0000 -0.0000
vn -0.0012 0.7071 -0.7071
vn -0.0000 0.1949 -0.9808
vn -1.0000 0.0001 -0.0000
vn 0.6954 -0.5481 0.4647
vn 0.8161 -0.1915 0.5453
vn 0.8203 0.5481 0.1632
vn 0.9626 0.1916 0.1914
vn 0.9626 0.1915 0.1915
vn 0.0007 -0.5556 0.8315
vn 0.1632 -0.5481 0.8203
vn -0.0000 -0.0000 1.0000
vn 0.1951 -0.0000 0.9808
vn -0.0000 -0.9808 0.1951
vn 0.1098 -0.8264 0.5522
vn 0.1099 -0.8264 0.5522
vn 0.3128 0.8264 0.4682
vn 0.5453 0.1915 0.8161
vn 0.8204 0.5481 0.1632
vn 0.8161 0.1914 0.5453
vn 0.1913 -0.1913 0.9627
vn -0.0009 0.9659 0.2589
vn -0.0000 1.0000 -0.0000
vn -0.0009 0.9659 0.2588
vn 0.0388 0.9800 0.1949
vn -0.0000 -0.1951 -0.9808
vn 0.0006 -0.8315 -0.5556
vn 0.1947 -0.9801 -0.0386
vn 0.1104 -0.9800 -0.1653
vn 0.1950 -0.9800 -0.0388
vn 0.5556 -0.8315 -0.0000
vn -1.0000 -0.0000 -0.0001
vn 0.1098 0.8264 -0.5522
vn -0.0011 0.7071 -0.7071
vn 0.1653 0.9800 -0.1104
vn -1.0000 -0.0000 0.0001
vn 0.1098 0.8265 -0.5522
vn 0.8315 -0.5555 -0.0000
vn 0.9808 -0.0000 0.1951
vn 0.8161 0.1915 0.5453
vn 0.8315 -0.0000 0.5556
vn 0.6955 -0.5481 0.4646
vn 0.0007 -0.5555 0.8315
vn 0.0006 -0.5555 0.8315
vn 0.0007 -0.5556 0.8314
vn 0.0006 -0.5557 0.8314
vn 0.1950 -0.9800 0.0388
vn 0.4681 -0.8264 0.3128
vn 0.4681 -0.8264 0.3129
vn 0.1949 -0.9800 0.0388
vn 0.0006 0.5556 0.8315
vn -0.0009 0.2589 0.9659
vn -1.0000 -0.0001 -0.0000
vn 0.0006 0.8315 0.5555
vn 0.0006 0.8314 0.5556
vn 0.1632 -0.5481 -0.8203
vn -1.0000 0.0001 -0.0001
vn 0.4647 -0.5481 -0.6954
vn -0.0000 -0.0000 -1.0000
vn -0.0000 -0.1954 -0.9807
vn 0.1098 -0.8265 -0.5522
vn 0.1098 -0.8264 -0.5522
vn 0.1099 -0.8264 -0.5522
vn 0.0006 -0.8313 -0.5559
vn 0.4647 -0.5481 -0.6955
vn 0.1097 -0.8264 -0.5523
vn 0.5522 -0.8265 0.1098
vn 0.0006 0.8315 -0.5555
vn 0.0006 0.8314 -0.5556
vn 0.0006 0.8315 -0.5556
vn 0.3128 0.8264 -0.4681
vn 0.1099 0.8264 -0.5522
vn 0.3128 0.8264 -0.4682
vn 0.1632 0.5481 -0.8203
vn 0.0006 0.5556 -0.8314
vn 0.5453 0.1915 -0.8161
vn 0.9626 -0.1915 -0.1915
vn 0.8203 -0.5481 -0.1632
vn 0.6955 -0.5481 0.4647
vn 0.8204 -0.5480 0.1634
vn 0.8203 -0.5481 0.1632
vn 0.8315 -0.5556 -0.0000
vn 0.8161 -0.1914 0.5452
vn 0.8161 -0.1915 0.5452
vn 0.6954 -0.5481 -0.4647
vn 0.8203 -0.5482 -0.1631
vn 0.6955 -0.5481 -0.4647
vn 0.1950 -0.9800 -0.0387
vn 0.4647 -0.5482 -0.6954
vn 0.8161 -0.1915 -0.5453
vn 0.0006 -0.5556 0.8315
vn 0.1631 -0.5482 0.8203
vn 0.1916 -0.1916 0.9626
vn 0.1915 -0.1915 0.9626
vn 0.1631 -0.5481 0.8203
vn 0.3128 -0.8264 0.4682
vn 0.3128 -0.8264 0.4681
vn 0.4682 -0.8263 0.3131
vn 0.6954 -0.5480 0.4648
vn 0.6955 -0.5482 0.4646
vn 0.3129 0.8264 -0.4681
vn 0.1632 0.5481 0.8203
vn 0.1099 0.8264 0.5522
vn 0.0006 0.5556 0.8314
vn 0.5522 0.8265 0.1098
vn 0.5555 0.8315 -0.0000
vn 0.5522 0.8264 0.1098
vn 0.0388 0.9800 0.1950
vn 0.5556 0.8315 -0.0000
vn 0.5522 0.8264 0.1099
vn 0.0385 0.9801 0.1947
vn 0.0006 0.8315 0.5556
vn 0.0387 0.9801 0.1949
vn 0.1653 -0.9800 -0.1104
vn 0.1949 -0.9800 -0.0388
vn 0.5556 -0.0000 -0.8315
vn -0.0000 0.1951 -0.9808
vn 0.0006 0.5555 -0.8315
vn 0.1950 -0.9800 0.0387
vn 0.5523 -0.8264 0.1098
vn 0.1631 -0.5482 -0.8203
vn 0.8161 -0.1915 -0.5452
vn 0.8315 -0.0000 -0.5556
vn 0.3129 -0.8264 0.4681
vn 0.3126 -0.8265 0.4681
vn 0.3127 -0.8265 0.4681
vn 0.1098 -0.8264 0.5523
vn 0.1653 0.9800 -0.1105
vn 0.5522 0.8265 -0.1098
vn 0.1650 0.9801 -0.1104
vn 0.1915 0.1915 0.9626
vn 0.1916 0.1916 0.9626
vn 0.0006 0.5555 0.8315
vn 0.4681 0.8264 0.3128
vn 0.4681 0.8265 0.3128
vn 0.3128 0.8264 0.4681
vn 0.4682 0.8263 0.3131
vn 0.4681 0.8264 0.3130
vn 0.3128 0.8265 0.4681
vn 0.8204 0.5480 0.1634
vn 0.4647 0.5481 0.6955
vn 0.3127 0.8265 0.4681
vn 0.3126 0.8265 0.4681
vn 0.3129 0.8264 0.4681
vn 0.4646 0.5480 0.6955
vn 0.4647 0.5482 0.6954
vn 0.4647 0.5481 0.6954
vn 0.1104 -0.9800 -0.1655
vn 0.5453 -0.1915 -0.8161
vn 0.8315 0.5556 -0.0000
vn 0.4681 0.8264 -0.3128
vn 0.5522 0.8264 -0.1098
vn 0.5522 0.8264 -0.1099
vn 0.4681 0.8265 -0.3128
vn 0.1631 -0.5481 -0.8203
vn 0.3127 0.8265 -0.4681
vn 0.6954 0.5481 -0.4647
vn 0.6955 0.5481 -0.4647
vn 0.8161 0.1915 -0.5453
vn 0.8315 0.5555 -0.0000
vn 1.0000 -0.0000 -0.0000
vn 0.9626 0.1916 -0.1914
vn 0.9626 0.1915 -0.1915
vn 0.5452 0.1914 -0.8162
vn 0.5453 0.1915 -0.8160
vn 0.1949 -0.0000 0.9808
vn -0.0000 -1.0000 0.0001
vn -0.0000 0.0001 1.0000
vn 0.9808 -0.0000 0.1949
vn 0.5522 0.8265 -0.1099
vn 0.0388 0.9801 0.1949
vn 0.5522 -0.8265 0.1099
vn 0.8316 -0.5554 -0.0000
vn 0.8314 -0.0000 0.5557
vn 0.8316 -0.0000 0.5554
vn 0.8314 -0.0000 0.5556
vn 0.8315 -0.0000 0.5555
vn 0.5522 -0.8264 0.1098
vn 0.5555 -0.8315 -0.0000
vn 0.8315 -0.0000 -0.5555
vn 0.8314 -0.0000 -0.5557
vn 0.5453 0.1914 -0.8161
vn 0.5559 -0.0000 -0.8313
s 0
usemtl Material.001
f 1//1 2//1 89//2
f 18//3 70//4 11//5
f 26//6 98//7 5//8
f 3//8 4//8 5//8
f 26//6 6//9 98//10
f 41//11 7//12 40//11
f 44//13 8//14 9//15
f 17//16 37//17 91//18
f 91//18 37//17 93//19
f 2//20 100//7 89//2
f 17//16 100//7 59//21
f 100//7 2//20 59//22
f 44//13 71//23 66//24
f 44//25 66//24 15//26
f 9//15 43//13 44//13
f 37//17 10//27 93//19
f 11//28 12//28 90//29
f 90//29 12//30 48//31
f 96//7 20//32 97//7
f 21//33 95//7 97//7
f 13//34 14//34 75//35
f 14//36 13//36 109//37
f 99//38 24//39 3//40
f 62//41 24//39 99//42
f 62//41 25//43 24//43
f 41//11 104//44 101//45
f 15//46 107//47 44//13
f 8//15 44//13 107//47
f 30//12 41//48 101//45
f 17//49 59//22 16//50
f 17//51 16//52 37//17
f 22//53 38//54 1//20
f 38//55 22//56 39//54
f 94//7 45//57 18//58
f 92//18 45//57 94//59
f 65//24 45//57 92//18
f 70//4 19//60 11//30
f 12//30 11//30 19//61
f 53//62 21//33 97//63
f 20//32 53//62 97//7
f 21//33 53//62 34//64
f 103//65 20//66 96//10
f 75//35 88//2 77//67
f 95//7 77//68 88//2
f 77//69 95//7 21//70
f 34//71 77//72 21//33
f 1//20 52//73 22//53
f 4//8 3//8 23//74
f 24//43 23//75 3//8
f 23//76 42//77 4//8
f 24//78 25//78 23//76
f 42//79 23//76 25//43
f 42//77 27//80 4//8
f 5//8 27//80 26//81
f 4//8 27//80 5//8
f 27//80 86//82 26//6
f 42//77 86//82 27//80
f 28//83 105//44 31//84
f 105//44 28//83 29//83
f 41//85 39//54 50//86
f 41//11 50//87 104//88
f 41//85 106//47 7//89
f 30//90 106//47 41//11
f 109//37 32//91 31//92
f 28//83 31//84 32//93
f 28//83 32//91 33//91
f 13//94 32//93 109//37
f 34//95 35//95 33//93
f 33//91 35//64 28//83
f 28//83 55//96 29//83
f 16//97 36//98 37//17
f 37//17 36//17 10//99
f 10//100 36//101 7//12
f 40//85 7//12 36//17
f 1//20 56//102 2//20
f 38//54 56//103 1//20
f 58//103 38//104 39//104
f 41//105 58//102 39//54
f 40//106 58//102 41//48
f 81//77 42//107 25//78
f 62//41 81//79 25//39
f 43//13 69//13 44//25
f 74//108 70//109 18//3
f 45//110 74//108 18//3
f 67//111 108//112 48//31
f 72//23 67//113 48//114
f 108//115 67//116 46//111
f 12//30 47//117 48//117
f 72//23 48//31 47//31
f 19//118 47//119 12//30
f 13//36 75//35 49//120
f 33//91 49//120 34//71
f 13//121 49//120 32//91
f 32//91 49//120 33//93
f 116//122 6//123 26//6
f 86//82 116//122 26//124
f 50//87 39//54 51//87
f 22//125 51//87 39//54
f 52//126 51//87 22//53
f 34//71 54//62 35//71
f 53//127 54//127 34//64
f 53//62 20//32 54//127
f 55//128 28//83 115//129
f 56//130 38//54 57//130
f 58//131 57//132 38//54
f 2//20 57//103 59//133
f 56//103 57//102 2//20
f 16//97 59//22 57//103
f 57//103 36//17 16//97
f 36//17 57//103 40//85
f 58//103 40//11 57//102
f 63//134 60//135 61//135
f 60//135 63//41 62//41
f 62//41 63//136 81//77
f 64//137 74//108 45//57
f 64//138 45//139 65//24
f 15//46 64//137 65//24
f 66//24 64//137 15//46
f 46//113 68//140 110//115
f 67//113 68//141 46//116
f 44//13 68//140 71//23
f 71//142 68//143 72//23
f 68//144 67//116 72//145
f 69//146 68//140 44//146
f 68//140 69//13 110//115
f 19//118 70//4 73//147
f 73//147 47//31 19//118
f 72//148 73//147 71//149
f 47//31 73//147 72//150
f 66//24 71//142 73//151
f 64//137 66//24 73//152
f 74//108 73//153 70//109
f 64//137 73//147 74//108
f 77//68 76//35 75//35
f 49//120 75//154 76//154
f 76//35 77//68 34//64
f 49//120 76//35 34//64
f 103//65 79//155 20//32
f 54//62 20//32 79//155
f 112//156 78//157 61//158
f 63//41 61//159 78//160
f 63//41 78//157 81//77
f 113//156 78//157 112//156
f 54//161 80//155 35//71
f 79//155 80//155 54//161
f 35//71 80//155 28//83
f 115//129 28//83 80//155
f 81//162 83//163 42//162
f 78//157 83//164 81//77
f 113//156 111//156 85//165
f 78//157 113//156 85//165
f 111//166 102//167 85//165
f 83//163 78//157 85//165
f 85//165 102//167 82//168
f 85//165 84//165 83//163
f 84//165 86//82 42//77
f 83//163 84//165 42//79
f 82//169 114//129 85//165
f 84//165 85//165 87//82
f 114//129 87//82 85//165
f 116//122 86//170 87//82
f 84//165 87//82 86//171
f 88//2 75//35 89//2
f 89//2 75//35 1//20
f 90//29 62//41 99//7
f 48//31 62//41 90//29
f 91//18 92//18 94//7
f 93//19 92//18 91//18
f 92//18 93//172 10//100
f 92//18 10//100 65//24
f 7//12 15//46 10//100
f 65//24 10//100 15//46
f 18//3 11//28 95//7
f 99//7 95//7 90//29
f 88//2 89//173 95//7
f 95//7 100//7 17//51
f 91//18 94//7 95//7
f 90//29 95//7 11//28
f 98//7 96//7 95//7
f 17//49 91//174 95//7
f 18//58 95//7 94//7
f 97//7 95//7 96//7
f 5//8 98//7 95//7
f 99//7 3//8 95//7
f 5//8 95//7 3//8
f 100//7 95//7 89//2
f 8//15 30//12 9//15
f 9//15 30//12 101//175
f 101//45 102//167 9//15
f 29//83 102//167 101//45
f 60//176 62//41 48//177
f 108//115 60//135 48//177
f 98//10 103//65 96//7
f 6//123 103//65 98//7
f 75//35 52//178 1//20
f 14//121 52//73 75//35
f 105//44 29//83 101//45
f 104//88 105//44 101//45
f 104//88 50//87 105//179
f 105//179 50//87 31//84
f 7//12 106//180 15//46
f 15//46 106//180 107//47
f 30//12 8//15 106//181
f 107//182 106//183 8//15
f 102//167 111//156 9//15
f 9//15 111//156 43//13
f 46//113 60//135 108//112
f 60//158 46//111 61//158
f 50//87 51//87 31//84
f 109//37 31//84 51//87
f 51//87 52//184 14//36
f 109//185 51//87 14//36
f 46//113 112//156 61//158
f 46//113 110//115 112//156
f 111//156 113//156 43//13
f 43//13 113//156 69//13
f 112//156 110//115 113//166
f 69//13 113//166 110//115
f 103//65 6//123 79//155
f 116//122 79//155 6//123
f 102//167 29//83 82//169
f 55//96 82//169 29//83
f 55//96 114//186 82//169
f 115//186 114//186 55//96
f 114//187 115//187 87//82
f 80//155 87//188 115//187
f 79//155 116//189 87//82
f 87//82 80//155 79//155
